# xmcd
#
# Track frame offsets: 
#        150
#        18930
#        35631
#        60805
#        77703
#        92640
#        113364
#        130640
#        147641
#        164778
#        185409
#        204089
#
# Disc length: 2877 seconds
#
# Revision: 1
# Processed by: cddbd v1.5.2PL0 Copyright (c) Steve Scherf et al.
# Submitted via: ExactAudioCopy v1.0b1
#
DISCID=940b3b0c
DTITLE=Kelly Fitzgerald - That and Change
DYEAR=2009
DGENRE=Folk
TTITLE0=My kind of strange
TTITLE1=Life is Long
TTITLE2=You're gonna be safe
TTITLE3=I already know
TTITLE4=I'm done
TTITLE5=Where i'm at
TTITLE6=Summer rain
TTITLE7=Happy to see you go
TTITLE8=Till you
TTITLE9=All over the map
TTITLE10=You're getting close
TTITLE11=Grow young with you
EXTD=
EXTT0=
EXTT1=
EXTT2=
EXTT3=
EXTT4=
EXTT5=
EXTT6=
EXTT7=
EXTT8=
EXTT9=
EXTT10=
EXTT11=
PLAYORDER=
